<?xml version="1.0" standalone="no"?>
<!DOCTYPE svg PUBLIC "-//W3C//DTD SVG 20010904//EN"
 "http://www.w3.org/TR/2001/REC-SVG-20010904/DTD/svg10.dtd">
<svg version="1.0" xmlns="http://www.w3.org/2000/svg"
 width="40.000000pt" height="40.000000pt" viewBox="0 0 40.000000 40.000000"
 preserveAspectRatio="xMidYMid meet">

<g transform="translate(0.000000,40.000000) scale(0.100000,-0.100000)"
fill="#000000" stroke="none">
<path d="M80 200 c0 -66 4 -120 8 -120 18 0 157 107 157 120 0 13 -139 120
-157 120 -4 0 -8 -54 -8 -120z"/>
<path d="M285 308 c-3 -8 -4 -61 -3 -119 2 -84 6 -104 18 -104 12 0 15 19 15
114 0 83 -3 115 -12 118 -7 3 -15 -2 -18 -9z"/>
</g>
</svg>
