<?xml version="1.0" standalone="no"?>
<!DOCTYPE svg PUBLIC "-//W3C//DTD SVG 20010904//EN"
 "http://www.w3.org/TR/2001/REC-SVG-20010904/DTD/svg10.dtd">
<svg version="1.0" xmlns="http://www.w3.org/2000/svg"
 width="40.000000pt" height="40.000000pt" viewBox="0 0 40.000000 40.000000"
 preserveAspectRatio="xMidYMid meet">

<g transform="translate(0.000000,40.000000) scale(0.100000,-0.100000)"
fill="#000000" stroke="none">
<path d="M310 347 c0 -7 5 -18 12 -25 9 -9 6 -12 -14 -12 -43 0 -54 -8 -134
-101 -72 -83 -79 -89 -115 -89 -28 0 -39 -4 -39 -15 0 -19 69 -21 91 -2 8 6
48 49 88 95 61 68 78 82 103 82 26 0 28 -2 18 -15 -24 -29 2 -37 31 -9 36 34
36 43 1 77 -31 30 -42 33 -42 14z"/>
<path d="M20 295 c0 -11 11 -15 39 -15 31 0 44 -6 64 -30 14 -16 28 -30 31
-30 15 0 3 29 -23 58 -24 26 -37 32 -70 32 -30 0 -41 -4 -41 -15z"/>
<path d="M205 171 c-12 -20 59 -81 94 -81 28 0 30 -2 19 -20 -20 -32 0 -35 32
-5 37 36 37 44 1 79 -29 28 -55 20 -31 -9 10 -13 8 -15 -16 -15 -18 0 -40 11
-60 31 -20 20 -34 27 -39 20z"/>
</g>
</svg>
