<?xml version="1.0" standalone="no"?>
<!DOCTYPE svg PUBLIC "-//W3C//DTD SVG 20010904//EN"
 "http://www.w3.org/TR/2001/REC-SVG-20010904/DTD/svg10.dtd">
<svg version="1.0" xmlns="http://www.w3.org/2000/svg"
 width="40.000000pt" height="40.000000pt" viewBox="0 0 40.000000 40.000000"
 preserveAspectRatio="xMidYMid meet">

<g transform="translate(0.000000,40.000000) scale(0.100000,-0.100000)"
fill="#000000" stroke="none">
<path d="M225 330 c-17 -19 -17 -21 0 -40 21 -23 44 -27 24 -4 -11 13 -7 15
37 12 l49 -3 0 -95 0 -95 -57 -3 c-32 -2 -58 -7 -58 -13 0 -6 26 -9 63 -7 l62
3 0 115 0 115 -53 3 c-45 3 -52 5 -42 18 19 22 -4 17 -25 -6z"/>
<path d="M54 307 c-2 -7 -3 -60 -2 -118 l3 -104 53 -3 c45 -3 52 -5 42 -18
-19 -22 4 -17 25 6 17 19 17 21 0 40 -21 23 -44 27 -24 4 11 -13 7 -15 -37
-12 l-49 3 0 95 0 95 58 3 c31 2 57 7 57 12 0 16 -120 12 -126 -3z"/>
<path d="M200 251 c0 -6 -8 -11 -17 -11 -17 -1 -17 -1 0 -14 10 -8 17 -26 17
-45 0 -19 4 -30 10 -26 6 3 10 26 10 50 0 24 -4 47 -10 50 -5 3 -10 1 -10 -4z"/>
</g>
</svg>
