<?xml version="1.0" standalone="no"?>
<!DOCTYPE svg PUBLIC "-//W3C//DTD SVG 20010904//EN"
 "http://www.w3.org/TR/2001/REC-SVG-20010904/DTD/svg10.dtd">
<svg version="1.0" xmlns="http://www.w3.org/2000/svg"
 width="40.000000pt" height="40.000000pt" viewBox="0 0 40.000000 40.000000"
 preserveAspectRatio="xMidYMid meet">

<g transform="translate(0.000000,40.000000) scale(0.100000,-0.100000)"
fill="#000000" stroke="none">
<path d="M225 330 c-17 -19 -17 -21 0 -40 21 -23 44 -28 25 -5 -11 13 -6 15
34 15 l46 0 0 -100 0 -100 -55 0 c-32 0 -55 -4 -55 -10 0 -7 22 -10 58 -8 l57
3 0 115 0 115 -48 3 c-41 3 -47 5 -37 18 19 22 -4 17 -25 -6z"/>
<path d="M64 307 c-2 -7 -3 -60 -2 -118 l3 -104 48 -3 c41 -3 47 -5 37 -18
-19 -22 4 -17 25 6 17 19 17 21 0 40 -21 23 -44 28 -25 5 11 -13 6 -15 -34
-15 l-46 0 0 100 0 100 55 0 c30 0 55 5 55 10 0 16 -110 13 -116 -3z"/>
</g>
</svg>
