<?xml version="1.0" standalone="no"?>
<!DOCTYPE svg PUBLIC "-//W3C//DTD SVG 20010904//EN"
 "http://www.w3.org/TR/2001/REC-SVG-20010904/DTD/svg10.dtd">
<svg version="1.0" xmlns="http://www.w3.org/2000/svg"
 width="50.000000pt" height="50.000000pt" viewBox="0 0 50.000000 50.000000"
 preserveAspectRatio="xMidYMid meet">

<g transform="translate(0.000000,50.000000) scale(0.100000,-0.100000)"
fill="#000000" stroke="none">
<path d="M210 466 c0 -8 6 -16 13 -19 6 -2 -7 -10 -31 -16 -23 -7 -59 -26 -79
-44 -117 -103 -86 -291 59 -351 132 -56 288 50 288 194 0 87 -68 178 -150 200
-25 7 -39 15 -32 17 6 3 12 11 12 19 0 10 -12 14 -40 14 -28 0 -40 -4 -40 -14z
m108 -61 c160 -67 160 -283 0 -350 -92 -38 -195 5 -239 100 -44 94 -2 201 96
246 49 23 94 24 143 4z"/>
<path d="M141 332 c6 -17 129 -142 139 -142 22 0 7 23 -56 82 -64 62 -90 81
-83 60z"/>
<path d="M395 440 c-10 -17 32 -57 45 -44 7 7 3 17 -14 33 -17 16 -26 19 -31
11z"/>
</g>
</svg>
